<?xml version="1.0" standalone="no"?>
<!DOCTYPE svg PUBLIC "-//W3C//DTD SVG 20010904//EN"
 "http://www.w3.org/TR/2001/REC-SVG-20010904/DTD/svg10.dtd">
<svg version="1.0" xmlns="http://www.w3.org/2000/svg"
 width="260.000000pt" height="260.000000pt" viewBox="0 0 260.000000 260.000000"
 preserveAspectRatio="xMidYMid meet">
<metadata>
Created by potrace 1.11, written by Peter Selinger 2001-2013
</metadata>
<g transform="translate(0.000000,260.000000) scale(0.100000,-0.100000)"
fill="#000000" stroke="none">
<path d="M1085 2585 c-213 -39 -384 -111 -555 -233 -88 -63 -234 -211 -297
-303 -110 -160 -187 -350 -219 -541 -20 -121 -15 -362 10 -476 36 -163 115
-346 202 -468 l44 -62 -54 -40 c-30 -23 -86 -73 -125 -113 -70 -71 -71 -73
-53 -91 23 -24 48 -28 87 -16 17 5 37 11 45 13 8 1 66 22 128 45 l113 41 32
-25 c197 -159 406 -259 632 -300 116 -21 355 -18 475 6 467 94 842 427 990
878 48 146 64 271 57 449 -7 172 -31 295 -87 435 -17 43 -27 82 -24 88 4 7 2
8 -5 4 -7 -5 -17 5 -25 26 -19 45 -118 190 -176 258 l-47 55 -2 89 c0 49 -3
91 -6 94 -4 5 -7 -37 -8 -140 l0 -27 -46 40 c-164 141 -384 256 -574 298 -23
6 -55 13 -72 16 -60 14 -368 14 -440 0z m-744 -2167 l46 -52 -51 -19 c-133
-48 -251 -85 -258 -81 -4 3 -4 13 1 22 18 33 185 181 206 182 5 0 30 -23 56
-52z"/>
</g>
</svg>
